<svg width="2724" height="500" viewBox="0 0 2724 500" fill="none" xmlns="http://www.w3.org/2000/svg">
<path d="M445.5 123H242.5L267 162H445.5V123Z" fill="#FFD600"/>
<path d="M425.5 224.5H303L326.5 265.5H425.5V224.5Z" fill="#FFD600"/>
<path d="M195.5 122L54.5 367H243L218.5 326.5H125.5L195.5 203.5L291 367H445.5V326.5H314.5L195.5 122Z" fill="white" stroke="white"/>
<g filter="url(#filter0_dd_13_66)">
<path d="M514.528 327V200.64C514.528 195.312 515.824 190.416 518.416 185.952C521.008 181.488 524.536 177.96 529 175.368C533.464 172.776 538.36 171.48 543.688 171.48H640.888C646.216 171.48 651.04 172.776 655.36 175.368C659.824 177.96 663.352 181.488 665.944 185.952C668.68 190.416 670.048 195.312 670.048 200.64V327H643.912V273.648H540.448V327H514.528ZM540.448 247.728H643.912V201.504C643.912 200.352 643.48 199.416 642.616 198.696C641.896 197.976 641.032 197.616 640.024 197.616H544.336C543.328 197.616 542.392 197.976 541.528 198.696C540.808 199.416 540.448 200.352 540.448 201.504V247.728ZM705.675 327V230.664C705.675 225.336 706.971 220.512 709.563 216.192C712.299 211.872 715.827 208.416 720.147 205.824C724.611 203.088 729.435 201.72 734.619 201.72H804.387V227.424H735.483C734.331 227.424 733.323 227.856 732.459 228.72C731.739 229.44 731.379 230.376 731.379 231.528V327H705.675ZM860.827 327C855.499 327 850.603 325.704 846.139 323.112C841.819 320.376 838.363 316.848 835.771 312.528C833.179 308.208 831.883 303.384 831.883 298.056V251.4H933.403V231.528C933.403 230.376 932.971 229.44 932.107 228.72C931.387 227.856 930.451 227.424 929.299 227.424H831.883V201.72H930.163C935.635 201.72 940.531 203.088 944.851 205.824C949.171 208.416 952.627 211.872 955.219 216.192C957.811 220.512 959.107 225.336 959.107 230.664V327H860.827ZM861.691 301.296H933.403V274.944H857.587V297.192C857.587 298.344 857.947 299.352 858.667 300.216C859.531 300.936 860.539 301.296 861.691 301.296ZM942.115 375.6V349.464H995.035C996.187 349.464 997.123 349.032 997.843 348.168C998.563 347.448 998.923 346.584 998.923 345.576V201.72H1024.84V346.44C1024.84 351.912 1023.55 356.808 1020.96 361.128C1018.36 365.448 1014.84 368.904 1010.37 371.496C1006.05 374.232 1001.23 375.6 995.899 375.6H942.115ZM998.923 186.6V160.68H1024.84V186.6H998.923ZM1057.3 327V201.72H1083V327H1057.3ZM1057.3 186.6V160.68H1083V186.6H1057.3ZM1147.91 327C1142.58 327 1137.69 325.704 1133.22 323.112C1128.9 320.376 1125.45 316.848 1122.85 312.528C1120.26 308.208 1118.97 303.384 1118.97 298.056V162.624H1144.67V201.72H1194.78V227.424H1144.67V297.192C1144.67 298.344 1145.03 299.352 1145.75 300.216C1146.61 300.936 1147.62 301.296 1148.77 301.296H1194.78V327H1147.91ZM1301.38 327V171.48H1444.15V197.616H1327.51V236.28H1421.47V262.2H1327.51V300.864H1444.15V327H1301.38ZM1477.77 327V201.72H1576.26C1581.45 201.72 1586.2 203.088 1590.52 205.824C1594.98 208.416 1598.51 211.872 1601.1 216.192C1603.69 220.512 1604.99 225.336 1604.99 230.664V327H1579.29V231.528C1579.29 230.376 1578.85 229.44 1577.99 228.72C1577.27 227.856 1576.41 227.424 1575.4 227.424H1507.57C1506.57 227.424 1505.63 227.856 1504.77 228.72C1503.9 229.44 1503.47 230.376 1503.47 231.528V327H1477.77ZM1668.77 327C1663.44 327 1658.55 325.704 1654.08 323.112C1649.76 320.376 1646.31 316.848 1643.72 312.528C1641.12 308.208 1639.83 303.384 1639.83 298.056V162.624H1665.53V201.72H1715.64V227.424H1665.53V297.192C1665.53 298.344 1665.89 299.352 1666.61 300.216C1667.48 300.936 1668.48 301.296 1669.64 301.296H1715.64V327H1668.77ZM1773.46 327C1768.13 327 1763.3 325.704 1758.98 323.112C1754.66 320.376 1751.14 316.848 1748.4 312.528C1745.81 308.208 1744.51 303.384 1744.51 298.056V230.664C1744.51 225.336 1745.81 220.512 1748.4 216.192C1751.14 211.872 1754.66 208.416 1758.98 205.824C1763.3 203.088 1768.13 201.72 1773.46 201.72H1842.79C1848.26 201.72 1853.16 203.088 1857.48 205.824C1861.8 208.416 1865.26 211.872 1867.85 216.192C1870.44 220.512 1871.74 225.336 1871.74 230.664V277.32H1770.22V297.192C1770.22 298.344 1770.58 299.352 1771.3 300.216C1772.16 300.936 1773.17 301.296 1774.32 301.296H1871.74V327H1773.46ZM1770.22 253.776H1846.03V231.528C1846.03 230.376 1845.6 229.44 1844.74 228.72C1844.02 227.856 1843.08 227.424 1841.93 227.424H1774.32C1773.17 227.424 1772.16 227.856 1771.3 228.72C1770.58 229.44 1770.22 230.376 1770.22 231.528V253.776ZM1904.9 327V230.664C1904.9 225.336 1906.19 220.512 1908.78 216.192C1911.52 211.872 1915.05 208.416 1919.37 205.824C1923.83 203.088 1928.66 201.72 1933.84 201.72H2003.61V227.424H1934.7C1933.55 227.424 1932.54 227.856 1931.68 228.72C1930.96 229.44 1930.6 230.376 1930.6 231.528V327H1904.9ZM2029.22 376.68V201.72H2127.71C2132.9 201.72 2137.65 203.088 2141.97 205.824C2146.43 208.416 2149.96 211.872 2152.55 216.192C2155.14 220.512 2156.44 225.336 2156.44 230.664V298.056C2156.44 303.384 2155.14 308.208 2152.55 312.528C2149.96 316.848 2146.43 320.376 2141.97 323.112C2137.65 325.704 2132.9 327 2127.71 327H2054.92V376.68H2029.22ZM2059.02 301.296H2126.85C2127.86 301.296 2128.72 300.936 2129.44 300.216C2130.3 299.352 2130.74 298.344 2130.74 297.192V231.528C2130.74 230.376 2130.3 229.44 2129.44 228.72C2128.72 227.856 2127.86 227.424 2126.85 227.424H2059.02C2058.02 227.424 2057.08 227.856 2056.22 228.72C2055.35 229.44 2054.92 230.376 2054.92 231.528V297.192C2054.92 298.344 2055.35 299.352 2056.22 300.216C2057.08 300.936 2058.02 301.296 2059.02 301.296ZM2184.1 327V230.664C2184.1 225.336 2185.4 220.512 2187.99 216.192C2190.73 211.872 2194.25 208.416 2198.57 205.824C2203.04 203.088 2207.86 201.72 2213.05 201.72H2282.81V227.424H2213.91C2212.76 227.424 2211.75 227.856 2210.89 228.72C2210.17 229.44 2209.81 230.376 2209.81 231.528V327H2184.1ZM2310.31 327V201.72H2336.01V327H2310.31ZM2310.31 186.6V160.68H2336.01V186.6H2310.31ZM2402.16 327C2396.83 327 2392.01 325.704 2387.69 323.112C2383.37 320.376 2379.84 316.848 2377.1 312.528C2374.51 308.208 2373.22 303.384 2373.22 298.056V293.952H2398.92V297.192C2398.92 298.344 2399.28 299.352 2400 300.216C2400.86 300.936 2401.87 301.296 2403.02 301.296H2470.63C2471.78 301.296 2472.72 300.936 2473.44 300.216C2474.3 299.352 2474.74 298.344 2474.74 297.192V281.208C2474.74 280.2 2474.3 279.336 2473.44 278.616C2472.72 277.752 2471.78 277.32 2470.63 277.32H2402.16C2396.83 277.32 2392.01 276.024 2387.69 273.432C2383.37 270.696 2379.84 267.168 2377.1 262.848C2374.51 258.528 2373.22 253.704 2373.22 248.376V230.664C2373.22 225.336 2374.51 220.512 2377.1 216.192C2379.84 211.872 2383.37 208.416 2387.69 205.824C2392.01 203.088 2396.83 201.72 2402.16 201.72H2471.5C2476.97 201.72 2481.86 203.088 2486.18 205.824C2490.5 208.416 2493.96 211.872 2496.55 216.192C2499.29 220.512 2500.66 225.336 2500.66 230.664V234.768H2474.74V231.528C2474.74 230.376 2474.3 229.44 2473.44 228.72C2472.72 227.856 2471.78 227.424 2470.63 227.424H2403.02C2401.87 227.424 2400.86 227.856 2400 228.72C2399.28 229.44 2398.92 230.376 2398.92 231.528V247.512C2398.92 248.52 2399.28 249.456 2400 250.32C2400.86 251.04 2401.87 251.4 2403.02 251.4H2471.5C2476.97 251.4 2481.86 252.768 2486.18 255.504C2490.5 258.096 2493.96 261.552 2496.55 265.872C2499.29 270.192 2500.66 275.016 2500.66 280.344V298.056C2500.66 303.384 2499.29 308.208 2496.55 312.528C2493.96 316.848 2490.5 320.376 2486.18 323.112C2481.86 325.704 2476.97 327 2471.5 327H2402.16ZM2558.97 327C2553.64 327 2548.82 325.704 2544.5 323.112C2540.18 320.376 2536.65 316.848 2533.91 312.528C2531.32 308.208 2530.03 303.384 2530.03 298.056V230.664C2530.03 225.336 2531.32 220.512 2533.91 216.192C2536.65 211.872 2540.18 208.416 2544.5 205.824C2548.82 203.088 2553.64 201.72 2558.97 201.72H2628.31C2633.78 201.72 2638.67 203.088 2642.99 205.824C2647.31 208.416 2650.77 211.872 2653.36 216.192C2655.95 220.512 2657.25 225.336 2657.25 230.664V277.32H2555.73V297.192C2555.73 298.344 2556.09 299.352 2556.81 300.216C2557.67 300.936 2558.68 301.296 2559.83 301.296H2657.25V327H2558.97ZM2555.73 253.776H2631.55V231.528C2631.55 230.376 2631.11 229.44 2630.25 228.72C2629.53 227.856 2628.59 227.424 2627.44 227.424H2559.83C2558.68 227.424 2557.67 227.856 2556.81 228.72C2556.09 229.44 2555.73 230.376 2555.73 231.528V253.776Z" fill="white"/>
</g>
<path d="M1660.71 390.8L1648.96 437H1639.06L1630.75 405.782H1630.61L1622.3 437H1612.4L1600.65 390.8H1609.63L1617.41 422.48H1617.55L1625.99 390.8H1635.37L1643.81 422.348H1643.95L1651.73 390.8H1660.71ZM1680.84 417.2V429.08H1699.25V437H1671.6V390.8H1699.25V398.72H1680.84V409.28H1695.29V417.2H1680.84ZM1732.22 413.57V394.892L1739.88 390.47H1756.58L1764.23 394.892V403.67H1754.99V398.39H1741.46V409.412H1756.58L1764.23 413.834V432.908L1756.58 437.33H1739.22L1731.56 432.908V424.13H1740.8V429.41H1754.99V417.992H1739.88L1732.22 413.57ZM1796.86 398.72V437H1787.62V398.72H1775.14V390.8H1809.33V398.72H1796.86ZM1838.34 390.8L1854.84 437H1845.73L1842.24 427.034H1824.94L1821.45 437H1812.34L1828.84 390.8H1838.34ZM1833.52 402.416L1827.72 419.114H1839.4L1833.66 402.416H1833.52ZM1874.3 407.102V437H1865.06V390.8H1873.71L1893.64 420.698H1893.77V390.8H1903.01V437H1894.36L1874.43 407.102H1874.3ZM1953.84 432.578L1946.18 437H1917.87V390.8H1946.18L1953.84 395.222V432.578ZM1927.11 398.72V429.08H1944.6V398.72H1927.11ZM2022.12 409.742L2016.38 413.042V413.174L2022.12 416.474V432.578L2014.47 437H1989.45V390.8H2014.47L2022.12 395.222V409.742ZM1998.69 417.068V429.08H2012.88V417.068H1998.69ZM1998.69 398.72V409.148H2012.88V398.72H1998.69ZM2046.21 417.2V429.08H2064.63V437H2036.97V390.8H2064.63V398.72H2046.21V409.28H2060.67V417.2H2046.21ZM2086.07 417.2V437H2076.83V390.8H2086.07V409.28H2104.22V390.8H2113.46V437H2104.22V417.2H2086.07ZM2128.28 437V390.8H2137.52V437H2128.28ZM2161.58 407.102V437H2152.34V390.8H2160.99L2180.92 420.698H2181.05V390.8H2190.29V437H2181.65L2161.71 407.102H2161.58ZM2241.12 432.578L2233.46 437H2205.15V390.8H2233.46L2241.12 395.222V432.578ZM2214.39 398.72V429.08H2231.88V398.72H2214.39ZM2312.7 432.908L2305.05 437.33H2284.39L2276.73 432.908V394.892L2284.39 390.47H2305.05L2312.7 394.892V432.908ZM2285.97 398.39V429.41H2303.46V398.39H2285.97ZM2354.27 390.8H2363.51V432.908L2355.86 437.33H2335.2L2327.54 432.908V390.8H2336.78V428.75H2354.27V390.8ZM2413.4 437H2403.24L2393.34 419.576H2387.59V437H2378.35V390.8H2403.37L2411.02 395.222V415.154L2403.37 419.576L2413.4 437ZM2387.59 398.72V411.656H2401.78V398.72H2387.59ZM2502.75 390.8L2491 437H2481.1L2472.79 405.782H2472.66L2464.34 437H2454.44L2442.69 390.8H2451.67L2459.46 422.48H2459.59L2468.04 390.8H2477.41L2485.86 422.348H2485.99L2493.78 390.8H2502.75ZM2549.61 432.908L2541.95 437.33H2521.29L2513.64 432.908V394.892L2521.29 390.47H2541.95L2549.61 394.892V432.908ZM2522.88 398.39V429.41H2540.37V398.39H2522.88ZM2599.49 437H2589.33L2579.43 419.576H2573.69V437H2564.45V390.8H2589.46L2597.12 395.222V415.154L2589.46 419.576L2599.49 437ZM2573.69 398.72V411.656H2587.88V398.72H2573.69ZM2611.97 437V390.8H2621.21V411.59H2621.34L2638.57 390.8H2649.53L2631.31 412.448L2651.57 437H2640.48L2625.77 419.048L2621.21 424.394V437H2611.97ZM2661.83 437V424.46H2674.37V437H2661.83Z" fill="#FFD600"/>
<defs>
<filter id="filter0_dd_13_66" x="510.528" y="160.68" width="2150.72" height="224" filterUnits="userSpaceOnUse" color-interpolation-filters="sRGB">
<feFlood flood-opacity="0" result="BackgroundImageFix"/>
<feColorMatrix in="SourceAlpha" type="matrix" values="0 0 0 0 0 0 0 0 0 0 0 0 0 0 0 0 0 0 127 0" result="hardAlpha"/>
<feOffset dy="4"/>
<feGaussianBlur stdDeviation="2"/>
<feComposite in2="hardAlpha" operator="out"/>
<feColorMatrix type="matrix" values="0 0 0 0 0 0 0 0 0 0 0 0 0 0 0 0 0 0 0.25 0"/>
<feBlend mode="normal" in2="BackgroundImageFix" result="effect1_dropShadow_13_66"/>
<feColorMatrix in="SourceAlpha" type="matrix" values="0 0 0 0 0 0 0 0 0 0 0 0 0 0 0 0 0 0 127 0" result="hardAlpha"/>
<feOffset dy="4"/>
<feGaussianBlur stdDeviation="2"/>
<feComposite in2="hardAlpha" operator="out"/>
<feColorMatrix type="matrix" values="0 0 0 0 0 0 0 0 0 0 0 0 0 0 0 0 0 0 0.25 0"/>
<feBlend mode="normal" in2="effect1_dropShadow_13_66" result="effect2_dropShadow_13_66"/>
<feBlend mode="normal" in="SourceGraphic" in2="effect2_dropShadow_13_66" result="shape"/>
</filter>
</defs>
</svg>
